<?xml version="1.0" encoding="UTF-8"?>
<svg width="600px" height="400px" viewBox="0 0 600 400" version="1.1" xmlns="http://www.w3.org/2000/svg" xmlns:xlink="http://www.w3.org/1999/xlink">
    <title>decoration3</title>
    <g id="decoration3" stroke="none" stroke-width="1" fill="none" fill-rule="evenodd">
        <circle id="Oval" fill="#0253B3" cx="300" cy="200" r="179"></circle>
        <path d="M111.189753,199.889523 L186.311618,410.599348 L258.921786,231.570582 L111.189753,199.889523 Z M186.20104,416.16366 L185.466487,414.103681 L185.000481,413.874794 L185.197941,413.35388 L108.117268,197.213918 L261.654639,230.102551 L187.314718,413.409128 L188.033474,415.374396 L186.777625,414.75877 L186.20104,416.16366 L186.20104,416.16366 Z" id="Fill-288" fill="#E6E7E8" transform="translate(184.885954, 306.688789) rotate(90.000000) translate(-184.885954, -306.688789) "></path>
        <path d="M94.4822171,252.623974 L276.980125,321.475597 L201.572866,110.059219 L94.4822171,252.623974 Z M280.278995,324.858892 L278.269611,324.084212 L91.3099227,253.548847 L202.213654,105.909149 L280.278995,324.858892 L280.278995,324.858892 Z" id="Fill-289" fill="#E6E7E8" transform="translate(185.794459, 215.384021) rotate(90.000000) translate(-185.794459, -215.384021) "></path>
        <path d="M265.350632,350.914891 L412.378643,382.64363 L369.303384,230.367077 L265.350632,350.914891 Z M415.19201,385.274485 L261.654639,352.151075 L370.209651,226.286082 L415.19201,385.274485 L415.19201,385.274485 Z" id="Fill-325" fill="#E6E7E8" transform="translate(338.423325, 305.780284) rotate(90.000000) translate(-338.423325, -305.780284) "></path>
        <path d="M286.960523,33.7588503 L309.619879,245.841578 L471.002561,223.978599 L286.960523,33.7588503 Z M307.856782,248.090206 L284.367268,28.2319588 L475.153351,225.422455 L473.224222,225.667043 L307.856782,248.090206 L307.856782,248.090206 Z" id="Fill-327" fill="#E6E7E8" transform="translate(379.760309, 138.161082) rotate(90.000000) translate(-379.760309, -138.161082) "></path>
        <path d="M144.417486,135.485079 C151.724659,137.331689 159.094218,132.68305 160.872271,125.136038 C162.658122,117.589026 158.181797,109.969755 150.874625,108.123145 C143.559654,106.300622 136.174497,110.925174 134.404243,118.472187 C132.610594,126.019199 137.102516,133.646499 144.417486,135.485079" id="Fill-433" stroke="#EFF2F4" fill="#B30298" transform="translate(147.637242, 121.807990) rotate(90.000000) translate(-147.637242, -121.807990) "></path>
        <path d="M261.691234,376.360392 C258.526049,375.584135 255.329054,377.524778 254.549687,380.693174 C253.794179,383.845728 255.734643,387.053728 258.899827,387.829985 C262.065012,388.606242 265.269959,386.649758 266.025468,383.481362 C266.804835,380.305045 264.856418,377.120807 261.691234,376.360392" id="Fill-450" stroke="#EFF2F4" fill="#E6E7E8" transform="translate(260.291881, 382.094716) rotate(90.000000) translate(-260.291881, -382.094716) "></path>
        <path d="M267.797292,76.9839804 C273.403524,78.371694 279.065739,74.9263362 280.433308,69.3196543 C281.800876,63.7289232 278.361961,58.0584384 272.763726,56.694651 C267.157494,55.3308635 261.511274,58.7602706 260.143705,64.3669524 C258.760141,69.9816097 262.199057,75.6281683 267.797292,76.9839804" id="Fill-452" stroke="#EFF2F4" fill="#18A4E0" transform="translate(270.285438, 66.843428) rotate(90.000000) translate(-270.285438, -66.843428) "></path>
        <path d="M409.240406,344.654 C410.373737,345.680038 411.780631,346.461447 413.382927,346.840855 C418.494642,348.09594 423.653253,344.957838 424.911641,339.841672 C425.77141,336.323382 424.552102,332.784837 422.027509,330.502156 C420.901993,329.475339 419.487283,328.696267 417.884988,328.314522 C412.773273,327.060995 407.622478,330.198318 406.379722,335.314484 C405.527769,338.834332 406.723629,342.371319 409.240406,344.654" id="Fill-469" stroke="#EFF2F4" fill="#0253B3" transform="translate(415.646263, 337.577964) rotate(90.000000) translate(-415.646263, -337.577964) "></path>
        <path d="M74.3936222,314.281456 C75.0126512,314.653236 75.6872342,314.938005 76.4094347,315.11203 C80.3220158,316.061257 84.2345968,313.664458 85.2028218,309.764715 C85.9567674,306.600624 84.5441114,303.412802 81.8695884,301.830756 C81.2743682,301.458975 80.591849,301.174207 79.8537759,301.000182 C75.9650036,300.027224 72.0286138,302.424023 71.0762614,306.323766 C70.3064432,309.495767 71.7349718,312.68359 74.3936222,314.281456" id="Fill-432" stroke="#EFF2F4" fill="#F1F2F2" transform="translate(78.136598, 308.051546) rotate(90.000000) translate(-78.136598, -308.051546) "></path>
        <path d="M488.442624,35.2992894 C484.066607,34.1538169 479.636755,36.9992839 478.567746,41.6232689 C478.567746,41.6443165 478.567746,41.6443165 478.567746,41.6443165 C477.498736,46.2683015 480.182796,50.9327626 484.581885,52.0604256 C488.973284,53.1856601 493.387754,50.3604311 494.449073,45.7153985 C495.525773,41.0914135 492.834023,36.4261429 488.442624,35.2992894" id="Fill-471" stroke="#EFF2F4" fill="#EFF2F4" transform="translate(486.509665, 43.676546) rotate(90.000000) translate(-486.509665, -43.676546) "></path>
        <path d="M290.83,202 C273.25,202 259,216.29 259,233.94 C259,242.78 262.56,250.76 268.35,256.54 C274.11,262.33 282.07,265.9 290.86,265.9 C308.46,265.9 322.69,251.62 322.69,233.96 C322.69,227.35 320.69,221.2 317.25,216.09 C311.53,207.59 301.84,202 290.83,202" id="Fill-715" stroke="#EFF2F4" fill="#D1D3D4"></path>
    </g>
</svg>