<?xml version="1.0" encoding="UTF-8"?>
<svg width="600px" height="400px" viewBox="0 0 600 400" version="1.1" xmlns="http://www.w3.org/2000/svg" xmlns:xlink="http://www.w3.org/1999/xlink">
    <title>decoration1</title>
    <g id="decoration1" stroke="none" stroke-width="1" fill="none" fill-rule="evenodd">
        <circle id="Oval" fill="#B30298" cx="290" cy="200" r="179"></circle>
        <path d="M134.086542,51.1537823 L313.097156,323.708654 L415.35588,85.3978508 L134.086542,51.1537823 Z M313.562938,329 L129,48 L419,83.3083449 L418.328873,84.8471904 L313.562938,329 L313.562938,329 Z" id="Fill-543" fill="#E6E7E8"></path>
        <path d="M416.594531,87.1550764 L315.761354,322.87875 L493.514046,198.194342 L416.594531,87.1550764 Z M310,330 L416.083564,82 L497,198.816713 L495.977068,199.538144 L310,330 L310,330 Z" id="Fill-545" fill="#E6E7E8"></path>
        <path d="M134.628171,39.4739843 C133.638852,39.1696365 132.58745,39 131.498999,39 C125.706275,39 121,43.6999287 121,49.5004989 C121,54.212402 124.103138,58.195866 128.381842,59.52402 C129.360147,59.8283678 130.41255,60 131.498999,60 C137.305741,60 142,55.2980756 142,49.5004989 C142,44.7975766 138.892857,40.8141126 134.628171,39.4739843" id="Fill-674" fill="#F1F2F2"></path>
        <path d="M416.9995,64 C405.956641,64 397,72.952101 397,83.9935238 C397,95.0498916 405.956641,104 416.9995,104 C428.043359,104 437,95.0498916 437,83.9935238 C437,72.952101 428.043359,64 416.9995,64" id="Fill-675" stroke="#EFF2F4" fill="#A7A9AC"></path>
        <path d="M496.007729,191 L496.007729,191 C492.132867,191 489,194.121274 489,197.997945 C489,201.863309 492.132867,205 496.007729,205 C499.870225,205 503,201.863309 503,197.997945 C503,194.121274 499.870225,191 496.007729,191" id="Fill-676" fill="#EFF2F4"></path>
        <path d="M312.493542,307 C302.283597,307 294,315.290304 294,325.489111 C294,328.049949 294.521575,330.478142 295.455441,332.68955 C298.257042,339.336642 304.828881,344 312.506458,344 C322.716403,344 331,335.711675 331,325.50099 C331,322.950051 330.478425,320.521858 329.544559,318.30946 C326.742958,311.665338 320.158204,307 312.493542,307" id="Fill-691" stroke="#EFF2F4" fill="#18A4E0"></path>
        <path d="M54.2349385,190.005787 L189.507275,260.953702 L331.554235,128.445221 L54.2349385,190.005787 Z M189.927561,264 L47,189.041908 L340,124 L189.927561,264 L189.927561,264 Z" id="Fill-393" fill="#E6E7E8"></path>
        <path d="M48.9729293,195.804182 C48.9729293,195.804182 48.9729293,195.804182 48.9729293,195.817335 C52.4328998,196.657091 55.9537496,194.522289 56.8162056,191.038819 C57.6583685,187.555349 55.5275949,184.034444 52.0371847,183.182547 C48.5467745,182.342791 45.0259247,184.479616 44.1837618,187.963086 C43.3415989,191.446556 45.4723726,194.964426 48.9729293,195.804182" id="Fill-468" fill="#E6E7E8"></path>
        <path d="M185.678324,275.594808 C193.19742,277.433875 200.756247,272.839675 202.60374,265.320001 C204.421434,257.800328 199.812636,250.232128 192.323338,248.395041 C184.804242,246.582714 177.235482,251.175924 175.397922,258.694607 C173.580228,266.191503 178.159228,273.782481 185.678324,275.594808" id="Fill-487" stroke="#EFF2F4" fill="#BCBEC0"></path>
        <path d="M236.924199,229.609933 C243.900213,231.38321 250.9263,226.942397 252.626857,219.69991 C254.328396,212.453358 250.049512,205.146849 243.073499,203.386784 C236.097485,201.623669 229.075325,206.05432 227.373786,213.296807 C225.670284,220.542343 229.951131,227.849868 236.924199,229.609933" id="Fill-478" stroke="#EFF2F4" fill="#0253B3"></path>
        <path d="M331.275795,145.428455 C341.989967,148.037939 352.815429,141.46583 355.42568,130.732462 C358.046049,120.012202 351.449599,109.193129 340.735427,106.571545 C330.011138,103.962061 319.195793,110.53417 316.575425,121.267538 C313.955056,131.987798 320.531271,142.806871 331.275795,145.428455" id="Fill-488" stroke="#EFF2F4" fill="#B30298"></path>
    </g>
</svg>