<?xml version="1.0" encoding="UTF-8"?>
<svg width="600px" height="400px" viewBox="0 0 600 400" version="1.1" xmlns="http://www.w3.org/2000/svg" xmlns:xlink="http://www.w3.org/1999/xlink">
    <title>decoration2</title>
    <g id="decoration2" stroke="none" stroke-width="1" fill="none" fill-rule="evenodd">
        <circle id="Oval" fill="#18A4E0" cx="300" cy="200" r="179"></circle>
        <g id="Group-2" transform="translate(329.500000, 241.500000) scale(1, -1) translate(-329.500000, -241.500000) translate(220.000000, 118.000000)">
            <g id="Group" transform="translate(7.000000, 7.000000)">
                <path d="M2.71849488,5.80697775 L26.4721727,228.637418 L195.648751,205.66649 L2.71849488,5.80697775 Z M24.6239277,231 L0,0 L200,207.183516 L197.977705,207.440499 L24.6239277,231 L24.6239277,231 Z" id="Fill-327" fill="#E6E7E8"></path>
                <path d="M195.305815,218.61745 C202.542992,220.371135 209.854865,215.929018 211.614362,208.699206 C212.062536,206.887616 212.104034,205.084299 211.82185,203.347159 C210.991899,198.160554 207.140924,193.718438 201.713041,192.38663 C194.459264,190.624674 187.163991,195.050246 185.396194,202.296603 C184.94802,204.116464 184.889923,205.911509 185.172107,207.648649 C186.026957,212.843526 189.877932,217.285642 195.305815,218.61745" id="Fill-451" stroke="#EFF2F4" fill="#EFF2F4"></path>
                <path d="M23.3803495,239.676504 C29.2828841,241.137562 35.2443598,237.510109 36.6842077,231.607101 C38.1240557,225.720887 34.5033854,219.750704 28.609271,218.314837 C22.7067365,216.87897 16.7621011,220.489629 15.3222531,226.392637 C13.8655649,232.304042 17.4862351,238.249034 23.3803495,239.676504" id="Fill-452" stroke="#EFF2F4" fill="#F1F2F2"></path>
            </g>
            <path d="M10.8794387,0.888799614 C6.17014715,-0.282315946 1.40292056,2.62685098 0.252496085,7.35435068 C0.252496085,7.37586941 0.252496085,7.37586941 0.252496085,7.37586941 C-0.897928387,12.1033691 1.99054745,16.872251 6.7246683,18.0251584 C11.4505127,19.1755829 16.2011864,16.287107 17.3433345,11.5380886 C18.5020354,6.81058889 15.6052831,2.04087937 10.8794387,0.888799614" id="Fill-471" stroke="#EFF2F4" fill="#BCBEC0"></path>
        </g>
        <path d="M171.247745,106.018943 L313.685193,356.08729 L386.501268,78.6098731 L171.247745,106.018943 Z M314.38869,361.549737 L167.895789,104.34131 L169.42693,104.138537 L389.315256,76.1534272 L314.38869,361.549737 L314.38869,361.549737 Z" id="Fill-625" fill="#E6E7E8"></path>
        <path d="M392.932058,44.8850556 C386.501268,44.8850556 381.311943,50.0975544 381.311943,56.5341379 C381.311943,59.1594231 382.180969,61.5744869 383.637622,63.5252426 C383.496922,63.5955923 383.331394,63.6667697 383.190694,63.7470511 C379.573892,65.7168426 377.107514,69.5653849 377.107514,73.9916224 C377.107514,80.425723 382.305116,85.6506364 388.727629,85.6506364 C391.922333,85.6506364 394.827362,84.3371662 396.929576,82.236607 C399.031791,80.1244608 400.347744,77.2144662 400.347744,73.9916224 C400.347744,71.3655095 399.453889,68.9504458 398.005513,66.9996901 C401.862332,65.1101799 404.527344,61.139974 404.527344,56.5341379 C404.527344,50.0975544 399.338019,44.8850556 392.932058,44.8850556" id="Fill-698" stroke="#EFF2F4" fill="#18A4E0"></path>
        <path d="M169.575905,85.7209861 C158.866199,85.7209861 150.175942,94.4402105 150.175942,105.168953 C150.175942,115.920042 158.866199,124.628507 169.575905,124.628507 C180.277336,124.628507 188.95104,115.920042 188.95104,105.168953 C188.95104,94.4402105 180.277336,85.7209861 169.575905,85.7209861" id="Fill-714" stroke="#EFF2F4" fill="#BCBEC0"></path>
        <path d="M314.024526,332.38358 C299.474554,332.38358 287.680634,344.210606 287.680634,358.818514 C287.680634,366.134882 290.627045,372.739477 295.4191,377.523257 C300.186327,382.315313 306.774369,385.27 314.049356,385.27 C328.615881,385.27 340.393249,373.451251 340.393249,358.835066 C340.393249,353.364343 338.737962,348.274335 335.890868,344.045077 C331.156747,337.010107 323.136881,332.38358 314.024526,332.38358" id="Fill-715" stroke="#EFF2F4" fill="#B30298"></path>
    </g>
</svg>