<?xml version="1.0" encoding="UTF-8"?>
<svg width="168px" height="160px" viewBox="0 0 168 160" version="1.1" xmlns="http://www.w3.org/2000/svg" xmlns:xlink="http://www.w3.org/1999/xlink">
    <!-- Generator: Sketch 51.3 (57544) - http://www.bohemiancoding.com/sketch -->
    <title>urx-logo</title>
    <desc>Created with Sketch.</desc>
    <defs></defs>
    <g id="Page-1" stroke="none" stroke-width="1" fill="none" fill-rule="evenodd">
        <g id="Desktop-HD" transform="translate(-508.000000, -329.000000)">
            <g id="urx-logo" transform="translate(487.000000, 310.000000)">
                <path d="M47.5416667,113.291667 C51.3694636,113.291667 55.7027536,112.569452 60.5416667,111.125 L60.5416667,70.5 L79.5,70.5 L79.5,127.916667 L61.2083333,127.916667 L61.2083333,122.5 C57.8138719,124.7389 54.7458512,126.381939 51.1708333,127.429167 C47.5958155,128.476394 44.5805678,129 42.125,129 L37.25,129 C32.3388643,129 28.4027926,127.519459 25.4416667,124.558333 C22.4805408,121.597207 21,117.661136 21,112.75 L21,70.5 L39.9583333,70.5 L39.9583333,109.5 C39.9583333,110.583339 40.3194408,111.486108 41.0416667,112.208333 C41.7638925,112.930559 42.6666612,113.291667 43.75,113.291667 L47.5416667,113.291667 Z" id="urx" fill="#9C3725"></path>
                <g id="Rectangle" transform="translate(40.500000, 46.500000)"></g>
                <path d="M28.5601099,105 C30.1338724,144.201928 62.411908,175.5 102,175.5 C141.588092,175.5 173.866128,144.201928 175.43989,105 L28.5601099,105 Z" id="Oval-2" stroke="#182F53" stroke-width="6" fill-rule="nonzero" transform="translate(102.000000, 102.000000) rotate(-25.000000) translate(-102.000000, -102.000000) "></path>
                <path d="M28.5601099,105 C30.1338724,144.201928 62.411908,175.5 102,175.5 C141.588092,175.5 173.866128,144.201928 175.43989,105 L28.5601099,105 Z" id="Oval-2-Copy-2" stroke="#182F53" stroke-width="6" fill-rule="nonzero" transform="translate(102.000000, 102.000000) rotate(-82.000000) translate(-102.000000, -102.000000) "></path>
                <path d="M116.846154,86.0943396 C112.323054,86.0943396 107.656434,87.1698006 102.846154,89.3207547 L102.846154,127.5 L84,127.5 L84,70.5 L100.692308,70.5 L101.769231,77.490566 C107.943621,72.1131807 114.405094,70.5 121.153846,70.5 L126,70.5 L126,86.0943396 L116.846154,86.0943396 Z" id="Path" fill="#F57A4D"></path>
                <circle id="Oval" stroke="#182F53" stroke-width="4.5" fill="#F9EEE2" fill-rule="nonzero" cx="36.75" cy="138.75" r="12"></circle>
                <circle id="Oval-Copy" stroke="#182F53" stroke-width="4.5" fill="#F9EEE2" fill-rule="nonzero" cx="107.25" cy="29.25" r="7.5"></circle>
                <polygon id="Path" fill="#F57A4D" points="167.421053 70.5 188.460526 70.5 171.197368 99 189 127.5 167.960526 127.5 158.25 110.292453 148.539474 127.5 127.5 127.5 145.302632 99 128.039474 70.5 149.078947 70.5 158.25 87.7075472"></polygon>
                <path d="M109.634335,176.608305 L175.108305,111.134335 C171.548326,145.630388 144.130388,173.048326 109.63434,176.608305 Z M175.108305,111.134335 L180.62132,105.62132 L175.5,103.5 C175.5,106.077932 175.367282,108.624865 175.108305,111.13434 Z M109.63434,176.608305 C107.124865,176.867282 104.577932,177 102,177 L104.12132,182.12132 L109.634335,176.608305 Z" id="Oval-2-Copy" stroke="#182F53" stroke-width="6" fill-rule="nonzero" transform="translate(140.250000, 103.500000) rotate(2.000000) translate(-140.250000, -103.500000) "></path>
                <circle id="Oval-Copy-2" stroke="#182F53" stroke-width="4.5" fill="#F9EEE2" fill-rule="nonzero" cx="175.5" cy="103.5" r="9.75"></circle>
            </g>
        </g>
    </g>
</svg>