<?xml version="1.0" encoding="UTF-8"?>
<svg width="173px" height="81px" viewBox="0 0 173 81" version="1.1" xmlns="http://www.w3.org/2000/svg" xmlns:xlink="http://www.w3.org/1999/xlink">
    <title>logo</title>
    <g id="Page-1" stroke="none" stroke-width="1" fill="none" fill-rule="evenodd">
        <g id="Desktop-HD" transform="translate(-95.000000, -139.000000)" fill="#0253B3" stroke="#FFFFFF" stroke-width="5">
            <g id="logo" transform="translate(95.000000, 139.000000)">
                <path d="M119.578884,9.49897175 L127.25,23.8922031 L134.920567,9.5 L161.897704,9.5 L143.132441,40.4798475 L162.509295,71.5 L135.500721,71.5 L127.25,56.8793014 L118.999279,71.5 L91.9907052,71.5 L111.367552,40.4798597 L105.076499,30.0940626 L98.8461538,30.0943396 C94.3456067,30.0943396 91.4144215,30.7985866 89.625128,32.2333974 C87.6497088,33.8174599 87.3466521,36.2410815 87.3461545,38.8143938 L87.3461545,38.8143938 L87.5129927,71 L63.5,71 L63.5,66.6178185 C54.5494755,70.7444364 45.0921607,71.4264569 37.7182524,68.9838498 C33.3772366,67.5458883 29.7334464,65.0376208 27.2159953,61.5424734 C24.8849936,58.3061863 23.5,54.2084098 23.5,49.25 L23.5,49.25 L23.5,9.5 L45.4583333,9.5 L45.4583333,44 C45.4583333,46.7147738 46.2903376,48.7658927 47.7023895,50.1177545 C49.3189359,51.6653939 51.6042407,52.2657173 53.8744519,52.1149283 C56.320694,51.9524473 58.7914715,50.9144179 60.5569549,49.0556214 C62.0756812,47.456624 63.0416667,45.2452188 63.0416667,42.5 L63.0416667,42.5 L63.0416667,9.5 L86.9779809,9.5 L86.9999777,11.9864191 C89.7058981,10.3211983 92.9610827,9.62024832 97.0130617,9.51443242 L97.0130617,9.51443242 L119.578884,9.49897175 Z" id="Combined-Shape-Copy-3"></path>
            </g>
        </g>
    </g>
</svg>